<?xml version="1.0" encoding="UTF-8"?>
<svg width="272px" height="50px" viewBox="0 0 272 50" version="1.1" xmlns="http://www.w3.org/2000/svg" xmlns:xlink="http://www.w3.org/1999/xlink">
    <title>1 Element/Logo/Big Dark/Tagesanzeiger_negative</title>
    <defs>
        <polygon id="path-1" points="4.87662941e-15 0 272 0 272 50 4.87662941e-15 50"></polygon>
    </defs>
    <g id="1-Element/Logo/Big-Dark/Tagesanzeiger_negative" stroke="none" stroke-width="1" fill="none" fill-rule="evenodd">
        <rect id="Size" x="0" y="0" width="256" height="50"></rect>
        <g id="Group-6">
            <g id="Group-3">
                <mask id="mask-2" fill="white">
                    <use xlink:href="#path-1"></use>
                </mask>
                <g id="Clip-2"></g>
                <path d="M29.2685883,5.2336865 C29.2555526,3.61518838 28.4799261,2.09661677 27.1719597,1.13797332 L25.6195732,0 L24.9689198,0.886175492 L26.5993791,2.11515837 C27.0197816,2.43475337 27.278371,2.93933979 27.2402557,3.46628938 C27.1463133,4.77793102 25.8316874,5.6110294 24.6183718,5.17027704 C23.2200054,4.66257676 16.4565822,2.20262945 15.3111375,1.78041871 C12.8564512,0.875701609 10.3623743,0.564032796 7.53276873,1.25771529 C4.12888222,2.10142909 0.658116709,5.31365602 0.155107214,8.84689333 C-0.133237666,10.8939715 -0.182546766,13.4651684 1.48900338,14.9727 C1.60618334,15.0920173 1.7291727,15.2121839 1.86590627,15.3327751 L2.59434903,14.5090183 C2.44528819,14.3772455 2.31238033,14.2474543 2.19250821,14.11922 C0.589962464,12.3028504 1.32336448,9.52911117 3.39349651,8.17571554 C6.25909201,6.3109396 10.144309,6.73470728 13.4701228,7.93892084 C13.9301993,8.10551221 15.6696203,8.74059757 17.6995116,9.48212023 L12.9661214,13.4259621 L12.9661214,33.6428224 C12.9661214,34.1853413 12.725102,34.7001186 12.3086668,35.0481629 L11.8762203,35.4093703 C8.73970813,32.8128379 6.68374538,28.5104778 6.68374538,23.6486142 C6.68374538,17.9423291 9.54069762,12.7782798 13.9622219,10.4925669 L13.7579009,9.66527166 C6.42118859,10.68874 0.888792612,17.6862851 0.888792612,25.9418286 C0.888792612,34.9871596 7.48941073,42.3459122 15.6025996,42.3459122 C18.8064159,42.3459122 21.8518196,41.2181297 24.4096583,39.0840051 C25.4846817,38.1872142 26.4443671,37.124398 27.2610845,35.9412738 L26.4341652,34.8103774 C25.2771017,35.9152306 23.9559579,36.7600767 22.5374711,37.302171 L22.5367627,11.1432216 C24.7260583,11.5072598 26.974865,10.5847088 28.2618609,8.70153281 C28.9184654,7.7411909 29.2692968,6.60562374 29.2692968,5.44273956 C29.2692968,5.44273956 29.2692968,5.40905329 29.2685883,5.2336865 L29.2685883,5.2336865 Z M18.8135005,37.9985427 C16.6178287,37.9985427 14.5584653,37.3013217 12.7800788,36.0893235 L16.8621071,32.6802159 C18.1124045,31.636366 18.8351795,30.0918928 18.8351795,28.4639115 L18.8351795,9.89697095 C19.7070154,10.2159998 20.5974131,10.5413979 21.4365179,10.8478298 L21.436943,37.6578584 C20.5852275,37.8810654 19.706732,37.9985427 18.8135005,37.9985427 L18.8135005,37.9985427 Z M66.5879254,38.3526732 L65.7539215,36.9191665 C65.5851654,36.5855592 65.4960406,36.2114717 65.4960406,35.8376673 L65.4805961,13.8899268 L60.1883694,9.4703725 L49.6998421,18.2297947 L49.6892152,38.863912 L53.4732635,42.0240526 L53.5241312,41.9815909 L53.5255482,41.9831478 L59.6584383,36.8537755 C59.777602,37.8432745 60.0682139,38.8122503 60.5178052,39.7012565 L61.2417138,41.1343386 C61.41047,41.4683706 63.253185,46.1064611 58.565845,47.360921 L57.9948229,47.5129338 C55.871131,41.844015 47.2665514,41.9050183 45.6856847,48.2987582 C45.6845511,48.3024382 45.6829925,48.3062598 45.6821424,48.3106475 L46.733078,48.6367533 C47.8663371,45.3595599 51.6111365,45.9078819 52.7485048,49.2193277 L52.9562264,49.9965181 L58.236976,48.58863 C61.9693064,47.5960172 67.5090704,46.9122424 67.5090704,42.2158379 C67.5090704,40.8805592 67.1904033,39.5444313 66.5879254,38.3526732 L66.5879254,38.3526732 Z M59.5969436,35.4720721 L56.9621657,37.6755508 L55.5686169,36.5112512 L55.5686169,14.6504157 L59.5969436,18.0147971 L59.5969436,35.4720721 Z M104.745234,10.0659685 L103.817854,9.47433559 C101.430189,12.9322742 97.506573,12.4946357 95.2451557,9.4555109 L86.8363955,16.4774008 L86.8354037,27.6986103 L90.5367034,30.2576349 L83.3951021,41.4332689 L84.3224816,42.0244772 L84.3240402,42.0222126 C86.6948444,38.5910248 90.5776526,38.9997894 92.8458712,41.980317 L101.30394,34.9166732 L101.304366,23.8863997 L97.5653755,21.3013319 L104.745234,10.0659685 Z M92.5216781,24.7231781 L92.5216781,15.0794203 C92.575663,15.1255621 92.629648,15.1719868 92.6844831,15.2168547 C95.1067218,17.1974095 98.7972529,16.7171678 100.691544,14.3664886 L93.5976933,25.4675315 L92.5216781,24.7231781 Z M95.6186579,26.8619735 L95.6186579,36.4193924 C95.5641062,36.3732507 95.5105463,36.3264013 95.4557112,36.2819581 C93.0337559,34.3018279 89.3446418,34.7812204 87.4497837,37.1307673 L94.5042439,26.0914353 L95.6186579,26.8619735 Z M46.3115418,37.8602591 C45.8575581,37.416676 44.9500156,36.4145801 44.9500156,35.489906 L44.9633347,13.8899268 L39.6711081,9.4703725 L29.1825808,18.2297947 L29.1719538,38.862355 L32.9558604,42.0224956 L39.0803907,36.902748 L39.0803907,36.9527113 C39.0803907,39.2892366 42.2146358,42.0236279 42.2146358,42.0236279 L47.9068613,38.2490667 C47.9068613,38.2490667 46.4628698,38.0076012 46.3115418,37.8602591 L46.3115418,37.8602591 Z M36.4449043,37.6735692 L35.0513555,36.5095527 L35.0513555,14.6504157 L39.0808158,18.0159294 C39.0808158,23.8655935 39.0808158,32.0019612 39.0803907,35.4689582 L36.4449043,37.6735692 Z M78.9609672,37.7219756 L75.2586756,34.6303398 L75.2586756,27.9604574 L85.3170235,19.5476641 L78.8848781,9.4703725 L69.3899009,17.4121241 L69.3899009,36.8987849 L75.5327095,42.0224956 L85.1374987,33.9784113 L84.4270509,33.1390853 L78.9609672,37.7219756 Z M75.2586756,14.704059 L80.1825009,22.4088744 L75.2586756,26.5270923 L75.2586756,14.704059 Z M234.944353,38.3557871 L234.110349,36.9231296 C233.941593,36.5890976 233.852468,36.2154348 233.852468,35.8414888 L233.837166,13.8937484 L228.544514,9.4703725 L218.05627,18.2329086 L218.045643,38.8678751 L221.829691,42.0280157 L221.880559,41.9851293 L221.881976,41.9869694 L228.014866,36.8578802 C228.13403,37.8469545 228.425067,38.8157887 228.873808,39.704795 L229.598142,41.1381602 C229.766898,41.471909 231.609613,46.1104242 226.922273,47.3644595 L226.351676,47.5168969 C224.227559,41.8479781 215.623688,41.9086983 214.042538,48.3011644 C214.041404,48.3059767 214.039704,48.3097982 214.038287,48.314469 L215.089081,48.6407163 L215.089506,48.6402917 C216.166371,45.5270005 219.59973,45.8665525 220.915631,48.7471537 C221.032669,49.0041884 221.118677,49.2741032 221.191507,49.5465658 L221.312654,50.0000566 L226.597796,48.5910362 C230.32956,47.5991311 235.865498,46.914224 235.865498,42.219801 C235.865498,40.8840977 235.546831,39.5479698 234.944353,38.3557871 L234.944353,38.3557871 Z M227.953088,35.4760352 L225.319019,37.6793723 L223.925045,36.5150728 L223.925045,14.6545204 L227.953513,18.0186186 L227.953088,35.4760352 Z M153.639174,38.4141011 L152.669995,37.4962209 C152.182572,37.0346623 151.846193,36.4363771 151.705492,35.7802024 L151.708892,35.7710024 L146.220846,10.1998643 C146.040613,9.14072823 145.947521,7.3914481 146.566577,6.40109993 C147.188467,5.40664712 148.52803,4.86299594 150.185695,5.81003319 L150.249598,5.84655024 C150.250448,5.84697486 150.250732,5.84739948 150.251157,5.84810717 L150.97209,5.01741495 L150.97209,5.01699034 L150.90096,4.95669474 C149.551194,3.8124937 148.170398,3.40330454 146.947164,3.56352665 C145.82524,3.71001949 145.093822,4.36987417 144.689289,4.8704975 C142.191244,0.280105622 136.336781,-0.636500749 132.763429,2.53864297 C132.295702,2.95434293 131.693224,3.6290592 131.228755,4.33958483 C130.412462,5.46651811 130.21891,7.16993961 130.876223,8.3891563 C131.522059,9.62040381 132.787801,10.3854219 134.179366,10.3854219 C135.103345,10.3854219 136.025623,10.1624981 136.847016,9.74057039 L136.34344,8.76296072 C135.677484,9.10534349 134.929062,9.28637184 134.179366,9.28637184 C133.198285,9.28637184 132.30647,8.74682528 131.848094,7.87395445 C131.822873,7.82668044 131.80006,7.77912334 131.777956,7.73142471 C130.793333,5.42787797 133.525312,3.54356966 135.912127,4.00795902 C137.809961,4.37765881 138.802094,5.6212202 139.363197,6.95112037 L133.814648,33.136396 C133.563852,33.1174298 133.302854,33.1138913 133.02797,33.125639 C132.343027,33.1552207 131.708952,33.2813319 131.143172,33.4987358 C128.717249,34.4345914 127.269007,36.4658172 127.269007,38.9324168 C127.275242,42.1285083 129.781929,44.7895825 132.979086,44.9909925 C133.086347,44.9972202 133.194034,45.000334 133.302004,45.000334 C134.095059,45.000334 134.894348,44.8392627 135.631717,44.5295754 L135.20508,43.5161564 C134.520987,43.8037636 133.772424,43.934404 133.044265,43.8939239 C132.101724,43.8349022 131.233572,43.5126179 130.506263,43.0040684 C129.694788,42.4289956 129.096986,41.599011 129.024014,40.569032 C128.886006,38.6102741 130.383274,37.7692496 132.04533,37.8956439 C133.976745,38.0427029 134.913335,39.4156309 135.454318,40.8802761 C135.502777,41.0126151 135.550102,41.1445294 135.59261,41.277576 C135.655663,41.4743152 135.751589,41.8256149 135.803591,42.0190987 L140.00124,38.5133199 C140.00124,38.5133199 139.731882,37.7582095 139.579987,37.4325284 C138.840351,35.7824671 137.583677,34.4767701 136.020947,33.7444474 C135.658072,33.5751668 135.282019,33.4368832 134.89789,33.3308706 L135.710215,29.4978537 L144.350926,29.4978537 L146.141498,37.8598345 C146.43296,39.2246948 147.213263,40.4308899 148.339437,41.2556375 L149.380454,42.0181079 L149.38088,42.0190987 L149.381305,42.0185325 L153.668787,38.4384458 L153.639174,38.4141011 Z M136.797282,24.3681983 L140.007475,9.21829159 L143.251957,24.3681983 L136.797282,24.3681983 Z M173.352895,38.2462359 L169.20668,42.0240526 L167.832826,41.0208243 C166.724789,40.2102307 166.070168,38.9209522 166.070168,37.5490149 L166.070593,14.9844477 L164.620225,13.7732987 L162.040566,15.9275219 L162.040566,36.1807577 C162.040566,36.5927777 162.222074,36.9803114 162.538191,37.2449892 L163.685761,38.2033496 L159.109933,42.0244772 L154.527588,38.197405 L155.673883,37.2461215 C155.990141,36.9818683 156.171508,36.5946177 156.171933,36.1831639 L156.153796,16.0181068 C156.153796,14.9179244 155.628966,13.8835576 154.740127,13.2340353 L154.564711,13.1056594 L158.912839,9.4703725 L160.260196,10.4594468 C161.368658,11.270182 162.023279,12.5597436 162.023279,13.9315393 L162.023279,14.5090183 L168.050041,9.4703725 L172.827356,13.463753 C172.253501,14.1493678 171.939226,15.0148786 171.939226,15.9086972 L171.939226,35.4623059 C171.939226,36.5623468 172.464481,37.5967136 173.352895,38.2462359 L173.352895,38.2462359 Z M214.961274,4.51212083 L210.730185,8.37500241 L206.104481,4.51212083 L210.730185,0.649522334 L214.961274,4.51212083 Z M262.744909,15.466954 L261.85607,16.7849649 L261.856778,34.5768381 L265.341855,37.4867378 L269.029552,34.4050098 L269.735749,35.248299 L261.624544,42.0244772 L255.992396,37.3207126 L255.986445,16.0353746 C255.986445,15.1578329 255.651341,14.322753 255.065016,13.69064 L254.376106,13.107641 L254.367888,13.1012717 L258.722391,9.4703725 L260.092986,10.4768561 C261.201307,11.2874498 261.85607,12.5770114 261.85607,13.9486655 L261.85607,14.8174317 L265.456909,9.47900637 C265.456909,9.47900637 265.690844,10.2283137 265.922653,10.7505925 C266.688078,12.4738294 268.394343,14.9664722 271.033088,11.544343 C271.033372,11.5433523 272,12.0700188 272,12.0700188 L269.820198,16.0491038 C269.247192,17.0960676 268.238056,17.7775777 267.05237,17.9198244 C266.901751,17.9375168 266.751982,17.9465753 266.603629,17.9465753 C265.582024,17.9465753 264.622622,17.5254968 263.920251,16.7553833 L262.744909,15.466954 Z M198.824162,37.7219756 L195.121871,34.6303398 L195.121871,27.9604574 L205.180219,19.5476641 L198.748498,9.4703725 L189.253521,17.4121241 L189.253521,36.8987849 L195.395905,42.0224956 L205.000836,33.9784113 L204.290246,33.1390853 L198.824162,37.7219756 Z M195.121871,14.704059 L200.045696,22.4088744 L195.121871,26.5270923 L195.121871,14.704059 Z M215.057625,38.2475098 L214.862797,38.3931534 L210.908576,42.0244772 L209.477478,41.0219567 C208.571069,40.358705 208.007415,39.3747261 207.828032,38.2871407 C207.788217,38.0445429 207.776456,37.797982 207.775181,37.5522703 C207.775181,37.5514211 207.774472,37.5505719 207.774472,37.5498642 L207.774756,15.2424732 C207.75166,14.8938628 207.588997,14.5705877 207.318647,14.3444085 L206.096971,13.3246202 L210.711765,9.4703725 L214.931377,13.3250448 L214.104882,14.3444085 C213.83014,14.573277 213.667193,14.9029213 213.647073,15.2570518 L213.645514,25.4297406 L213.647073,25.429316 L213.644381,35.4637213 C213.644381,35.4637213 213.643956,35.4645705 213.643956,35.4649951 C213.644664,36.5643283 214.169494,37.5978459 215.057625,38.2475098 L215.057625,38.2475098 Z M247.257459,37.7219756 L243.556017,34.6303398 L243.556017,27.9604574 L253.613515,19.5476641 L247.181653,9.4703725 L237.686818,17.4121241 L237.686818,36.8987849 L243.829626,42.0224956 L253.43399,33.9784113 L252.724251,33.1389437 L247.257459,37.7219756 Z M243.556017,14.704059 L248.479559,22.4090159 L243.556017,26.5270923 L243.556017,14.704059 Z M186.793309,36.1085728 C186.793309,38.5676709 185.703549,40.9007993 183.816201,42.4798081 L183.491583,42.7512798 L176.030323,48.9488467 C175.224799,45.0142049 171.035084,44.148694 169.824886,47.6473959 L168.7748,47.3215731 C170.117906,41.8519412 176.597802,41.0133228 179.777956,44.422855 L181.252411,43.1920321 C181.25312,43.1911829 181.253545,43.189626 181.254253,43.1892014 C183.277202,41.4076504 183.702989,38.5365323 182.076497,36.374383 L175.632449,28.6774938 L179.617418,25.3499126 C182.969303,22.5504134 182.969586,17.4037733 179.617843,14.6044156 L178.638037,13.7854711 L176.740062,15.3701414 L176.035565,14.5275599 L182.091091,9.4703725 L183.424704,10.5842842 C187.48732,13.9773979 187.486612,20.2150203 183.42357,23.606011 L180.801261,25.7944865 L185.097388,31.0774286 C186.197916,32.524523 186.793309,34.2914955 186.793309,36.1085728 L186.793309,36.1085728 Z M112.893279,12.3729122 C114.171915,12.1893361 115.718917,12.0814834 117.384941,12.0814834 C119.095174,12.0814834 120.679158,12.1949977 121.977064,12.3879153 L121.511886,13.8252435 C120.308348,13.6716737 118.895954,13.583495 117.384941,13.583495 C115.91247,13.583495 114.532665,13.6677107 113.349388,13.8139204 L112.893279,12.3729122 Z M122.270935,15.0235125 L123.897568,10.008079 L122.786697,9.86455853 L122.325061,11.2965083 L119.844304,11.0691967 L120.260739,9.56973285 L119.004774,9.47702483 L118.584796,10.9895103 L116.213709,10.9989934 L115.791039,9.47702483 L114.540742,9.57907443 L114.944141,11.0400397 L112.544573,11.2965083 L112.083221,9.86455853 L110.972066,10.0237899 L112.59955,15.0151617 L112.605359,15.038374 C113.936988,14.8281887 115.590402,14.7036344 117.384941,14.7036344 C119.222414,14.7036344 120.914084,14.8344164 122.262008,15.0538018 L122.270935,15.0235125 Z" id="Fill-1" fill="#FFFFFF" mask="url(#mask-2)"></path>
            </g>
            <path d="M109.424228,18.337789 L109.408642,18.3407613 C109.341905,19.3788081 109.188451,22.1715135 109.289053,24.5722975 C109.392489,27.0345095 109.693303,28.9621287 110.23627,30.6382332 C112.230738,36.7958861 116.309224,39.8927588 117.399125,40.6308845 C118.478966,39.9281435 122.461951,37.0258869 124.471863,31.3102602 L109.424228,18.337789 Z M117.386939,41.9180399 L117.114747,41.7593747 C116.891581,41.6290173 111.617208,38.4841629 109.185759,30.9777852 C108.611195,29.2037357 108.293945,27.1832669 108.186258,24.6182977 C108.057601,21.5527051 108.333619,17.878495 108.336027,17.8418364 L108.367625,17.4309488 L108.770599,17.3443269 C108.957775,17.3041299 113.391627,16.3634619 117.397991,16.3634619 L117.41882,16.3634619 C121.679098,16.3670004 125.963322,17.3054037 126.14398,17.3450346 L126.517483,17.4278349 L126.571043,17.8067348 C126.587621,17.9240706 126.973592,20.727816 126.75666,24.6797256 C126.609725,27.3641537 126.371822,28.89603 125.815111,30.7504736 C123.505944,38.4391535 117.899159,41.6329804 117.661682,41.7648947 L117.386939,41.9180399 Z" id="Fill-4" fill="#FFFFFF"></path>
        </g>
    </g>
</svg>