<svg id="ed794a56-595f-4d9f-bc75-5ea07b23b891" data-name="Ebene 1" xmlns="http://www.w3.org/2000/svg" viewBox="0 0 138.02 145.15"><defs><style>.\34 cfdcc56-0ffc-4fef-b30a-084e26c9b147{fill:#fff}</style></defs><title>tagesanzeiger-inverted</title><path class="4cfdcc56-0ffc-4fef-b30a-084e26c9b147" d="M136 113.32c-1.64 1.87-2.87 3.54-4.75 4.72a10.18 10.18 0 0 1-3.93-6.5L114 36.09c-.79-4.46-1.11-10.66.79-14.69 2.09-3.82 5.57-5.52 10.61-1.93l1.63-1.66c-7.65-9.2-15.08-4.62-19.44-.24A43 43 0 0 0 93 2.66l-1.5 1.43c4.86 5.22 2.31 18.31 1.35 22.56L79.38 91.88l-3.61 16.25a22.23 22.23 0 0 0-6.34 2.32 19.87 19.87 0 0 0-3.17 2.2 17.34 17.34 0 0 0-5.91 9.82 18.16 18.16 0 0 0-.35 3.73 18.85 18.85 0 0 0 33.26 12.26L91.35 137c-3.11 2.76-7.84 5.69-13.37 5.4-4.8-.25-10.44-2.7-12.27-7.41a8.81 8.81 0 0 1-.58-2.48c-.48-6.29 3.46-10.24 9.68-9.64a11.75 11.75 0 0 1 4.76 1.46c4.11 2.34 6 7 7.17 11.28l15.67-22.08-2-1.4-3.78 4.87a30.56 30.56 0 0 0-9.94-7.35 21.91 21.91 0 0 0-2.88-1 22.36 22.36 0 0 0-4-.72l2.53-12h22.86l4.8 26.58c1.19 5.46 5.94 9.73 10.21 14 4.25-5.29 13.54-16.58 17.81-21.37zM85.78 79.56l9-42.83 7.54 42.83z"/><path class="4cfdcc56-0ffc-4fef-b30a-084e26c9b147" d="M87.43 2.91A11.19 11.19 0 0 0 83 0l-1 1.88-.12.21C83 2.8 85.07 4 85.66 5.7c1.35 3.87 0 8.69-3.7 9.83a6.38 6.38 0 0 1-2.95.14A63.85 63.85 0 0 1 68.36 13c-1.63-.54-3.25-1.13-4.87-1.74C51 6.53 38.88.62 24.17 4.27 13.21 7 2 17.29.43 28.73c-1 7.09-.71 16.14 6.17 20.42l1.19-1.66c-6.22-6.22-4-16.23 3.08-20.89 12.74-8.34 31.74-2.52 43.61 4.4-5.7 4.27-11.79 7.92-17.25 12v64.57a4.62 4.62 0 0 1-3.08 2.85C24.64 99 21.32 83.57 23 68.61c1.9-15 8.07-30.63 22.79-37.27l-.24-2.14C28.2 29.2 12.53 41.07 6.12 57c-7.6 23-3.8 50.57 13.06 68.14 10.41 9.5 24.77 14.19 38.71 9.91-2-3.6-2.25-9.46-1.16-13.69-7.09-.64-14.49-3.15-19.5-7.62 5.86-4.65 19-7.83 19-20.65V31.81a50.08 50.08 0 0 0 6 2v77.63a21.9 21.9 0 0 1 3.17-2.55v-74.7a28.5 28.5 0 0 0 14.56-2.82 21.69 21.69 0 0 0 2.18-1.25 17.68 17.68 0 0 0 3.13-2.58 14.7 14.7 0 0 0 3-3.63c3.66-6.26 4.01-15.78-.84-21z"/></svg>